<?xml version="1.0" encoding="UTF-8" standalone="no"?>
<svg width="800" height="600" xmlns="http://www.w3.org/2000/svg">
  <!-- Background -->
  <rect width="800" height="600" fill="#f8f9fa" />
  
  <!-- Title -->
  <text x="400" y="40" font-family="Arial" font-size="22" text-anchor="middle" font-weight="bold" fill="#333">Elasticsearch Content Personalization - Architecture</text>
  
  <!-- Client Layer -->
  <rect x="300" y="70" width="200" height="60" rx="10" ry="10" fill="#91c5ff" stroke="#0066cc" stroke-width="2" />
  <text x="400" y="105" font-family="Arial" font-size="16" text-anchor="middle" fill="#333">Client Applications</text>
  
  <!-- API Layer -->
  <rect x="150" y="170" width="500" height="100" rx="10" ry="10" fill="#b3e6cc" stroke="#1a8c55" stroke-width="2" />
  <text x="400" y="195" font-family="Arial" font-size="18" text-anchor="middle" font-weight="bold" fill="#333">API Layer (.NET Core 8)</text>
  
  <!-- API Controllers -->
  <rect x="180" y="210" width="130" height="40" rx="5" ry="5" fill="#8cd9a8" stroke="#1a8c55" stroke-width="1" />
  <text x="245" y="235" font-family="Arial" font-size="14" text-anchor="middle" fill="#333">Content API</text>
  
  <rect x="335" y="210" width="130" height="40" rx="5" ry="5" fill="#8cd9a8" stroke="#1a8c55" stroke-width="1" />
  <text x="400" y="235" font-family="Arial" font-size="14" text-anchor="middle" fill="#333">Personalization API</text>
  
  <rect x="490" y="210" width="130" height="40" rx="5" ry="5" fill="#8cd9a8" stroke="#1a8c55" stroke-width="1" />
  <text x="555" y="235" font-family="Arial" font-size="14" text-anchor="middle" fill="#333">User Interaction API</text>
  
  <!-- Core Layer -->
  <rect x="150" y="310" width="500" height="100" rx="10" ry="10" fill="#ffe6b3" stroke="#cc9933" stroke-width="2" />
  <text x="400" y="335" font-family="Arial" font-size="18" text-anchor="middle" font-weight="bold" fill="#333">Core Layer</text>
  
  <!-- Core Components -->
  <rect x="180" y="350" width="130" height="40" rx="5" ry="5" fill="#ffd480" stroke="#cc9933" stroke-width="1" />
  <text x="245" y="375" font-family="Arial" font-size="14" text-anchor="middle" fill="#333">Entities</text>
  
  <rect x="335" y="350" width="130" height="40" rx="5" ry="5" fill="#ffd480" stroke="#cc9933" stroke-width="1" />
  <text x="400" y="375" font-family="Arial" font-size="14" text-anchor="middle" fill="#333">Interfaces</text>
  
  <rect x="490" y="350" width="130" height="40" rx="5" ry="5" fill="#ffd480" stroke="#cc9933" stroke-width="1" />
  <text x="555" y="375" font-family="Arial" font-size="14" text-anchor="middle" fill="#333">Models</text>
  
  <!-- Infrastructure Layer -->
  <rect x="150" y="450" width="500" height="100" rx="10" ry="10" fill="#ffb3b3" stroke="#cc4d4d" stroke-width="2" />
  <text x="400" y="475" font-family="Arial" font-size="18" text-anchor="middle" font-weight="bold" fill="#333">Infrastructure Layer</text>
  
  <!-- Infrastructure Components -->
  <rect x="180" y="490" width="130" height="40" rx="5" ry="5" fill="#ff9999" stroke="#cc4d4d" stroke-width="1" />
  <text x="245" y="515" font-family="Arial" font-size="14" text-anchor="middle" fill="#333">Data Context</text>
  
  <rect x="335" y="490" width="130" height="40" rx="5" ry="5" fill="#ff9999" stroke="#cc4d4d" stroke-width="1" />
  <text x="400" y="515" font-family="Arial" font-size="14" text-anchor="middle" fill="#333">Services</text>
  
  <rect x="490" y="490" width="130" height="40" rx="5" ry="5" fill="#ff9999" stroke="#cc4d4d" stroke-width="1" />
  <text x="555" y="515" font-family="Arial" font-size="14" text-anchor="middle" fill="#333">External Clients</text>
  
  <!-- Data Stores -->
  <rect x="50" y="350" width="100" height="100" rx="10" ry="10" fill="#d9d9d9" stroke="#808080" stroke-width="2" />
  <text x="100" y="390" font-family="Arial" font-size="16" text-anchor="middle" fill="#333">SQL Server</text>
  <text x="100" y="410" font-family="Arial" font-size="12" text-anchor="middle" fill="#555">User Interactions</text>
  
  <rect x="650" y="350" width="100" height="100" rx="10" ry="10" fill="#d9d9d9" stroke="#808080" stroke-width="2" />
  <text x="700" y="390" font-family="Arial" font-size="16" text-anchor="middle" fill="#333">Elasticsearch</text>
  <text x="700" y="410" font-family="Arial" font-size="12" text-anchor="middle" fill="#555">Content Index</text>
  
  <!-- Connections -->
  <!-- Client to API -->
  <path d="M400,130 L400,170" stroke="#666" stroke-width="2" stroke-dasharray="5,5" />
  
  <!-- API to Core -->
  <path d="M245,250 L245,310" stroke="#666" stroke-width="2" />
  <path d="M400,250 L400,310" stroke="#666" stroke-width="2" />
  <path d="M555,250 L555,310" stroke="#666" stroke-width="2" />
  
  <!-- Core to Infrastructure -->
  <path d="M245,390 L245,450" stroke="#666" stroke-width="2" />
  <path d="M400,390 L400,450" stroke="#666" stroke-width="2" />
  <path d="M555,390 L555,450" stroke="#666" stroke-width="2" />
  
  <!-- Infrastructure to Data Stores -->
  <path d="M180,510 L100,450" stroke="#666" stroke-width="2" />
  <path d="M620,510 L700,450" stroke="#666" stroke-width="2" />
  
  <!-- Personalization Flow -->
  <path d="M250,530 C250,550 400,560 550,530" stroke="#cc4d4d" stroke-width="3" fill="none" stroke-dasharray="10,3" />
  <text x="400" y="570" font-family="Arial" font-size="14" text-anchor="middle" fill="#cc4d4d">Personalization Engine</text>
  
  <!-- Legend -->
  <rect x="650" y="490" width="15" height="15" fill="#b3e6cc" stroke="#1a8c55" stroke-width="1" />
  <text x="670" y="503" font-family="Arial" font-size="12" fill="#333" text-anchor="start">API Layer</text>
  
  <rect x="650" y="510" width="15" height="15" fill="#ffe6b3" stroke="#cc9933" stroke-width="1" />
  <text x="670" y="523" font-family="Arial" font-size="12" fill="#333" text-anchor="start">Core Layer</text>
  
  <rect x="650" y="530" width="15" height="15" fill="#ffb3b3" stroke="#cc4d4d" stroke-width="1" />
  <text x="670" y="543" font-family="Arial" font-size="12" fill="#333" text-anchor="start">Infrastructure Layer</text>
  
  <rect x="650" y="550" width="15" height="15" fill="#d9d9d9" stroke="#808080" stroke-width="1" />
  <text x="670" y="563" font-family="Arial" font-size="12" fill="#333" text-anchor="start">Data Stores</text>
</svg>
